HIERARCHY
ROOT hips
{
  OFFSET 0 9.313263304106702 1.2146308026317778
  CHANNELS 6 Xposition Yposition Zposition Yrotation Xrotation Zrotation
  JOINT spine
  {
    OFFSET -6.402521e-31 0.5173342420023708 0
    CHANNELS 3 Yrotation Xrotation Zrotation
    JOINT chest
    {
      OFFSET 0 1.130544299341115 0
      CHANNELS 3 Yrotation Xrotation Zrotation
      JOINT upperChest
      {
        OFFSET 0 1.0863555061129995 0
        CHANNELS 3 Yrotation Xrotation Zrotation
        JOINT neck
        {
          OFFSET 0 1.3773706506454462 0
          CHANNELS 3 Yrotation Xrotation Zrotation
          JOINT head
          {
            OFFSET 0 0.7374408940073979 0
            CHANNELS 3 Yrotation Xrotation Zrotation
            JOINT leftEye
            {
              OFFSET 0.25066580148932727 0.6408406698778757 0.15963719178883284
              CHANNELS 3 Yrotation Xrotation Zrotation
              End Site
              {
                OFFSET 0.25066580148932727 0.6408406698778757 0.15963719178883284
              }
            }
            JOINT rightEye
            {
              OFFSET -0.25066576739704244 0.6408406384191823 0.15963727561643756
              CHANNELS 3 Yrotation Xrotation Zrotation
              End Site
              {
                OFFSET -0.25066576739704244 0.6408406384191823 0.15963727561643756
              }
            }
          }
        }
        JOINT leftShoulder
        {
          OFFSET 0.3761817444281191 1.0539491987447769 0
          CHANNELS 3 Yrotation Xrotation Zrotation
          JOINT leftUpperArm
          {
            OFFSET 0.8702844380000002 0 0
            CHANNELS 3 Yrotation Xrotation Zrotation
            JOINT leftLowerArm
            {
              OFFSET 2.198527310000323 0 0
              CHANNELS 3 Yrotation Xrotation Zrotation
              JOINT leftHand
              {
                OFFSET 2.146852313968281 0 0
                CHANNELS 3 Yrotation Xrotation Zrotation
                JOINT leftIndexProximal
                {
                  OFFSET 0.6585177834681599 0.07380250427007962 0.18382213159631788
                  CHANNELS 3 Yrotation Xrotation Zrotation
                  JOINT leftIndexIntermediate
                  {
                    OFFSET 0.3323021288626682 -0.009606893929485771 -0.012820872253340998
                    CHANNELS 3 Yrotation Xrotation Zrotation
                    JOINT leftIndexDistal
                    {
                      OFFSET 0.2045908926985518 -0.0071133989147997845 -0.006828784783599051
                      CHANNELS 3 Yrotation Xrotation Zrotation
                      End Site
                      {
                        OFFSET 0.2045908926985518 -0.0071133989147997845 -0.006828784783599051
                      }
                    }
                  }
                }
                JOINT leftLittleProximal
                {
                  OFFSET 0.6110054258835662 0.07380246363125398 -0.29175655876064077
                  CHANNELS 3 Yrotation Xrotation Zrotation
                  JOINT leftLittleIntermediate
                  {
                    OFFSET 0.3144281999999998 -2.5124724523095665e-9 1.8658118799974588e-7
                    CHANNELS 3 Yrotation Xrotation Zrotation
                    JOINT leftLittleDistal
                    {
                      OFFSET 0.18116185580251631 0.002815456192251098 0.0034826415518049436
                      CHANNELS 3 Yrotation Xrotation Zrotation
                      End Site
                      {
                        OFFSET 0.18116185580251631 0.002815456192251098 0.0034826415518049436
                      }
                    }
                  }
                }
                JOINT leftMiddleProximal
                {
                  OFFSET 0.6637478005691111 0.07380246480054087 0.02046981859247815
                  CHANNELS 3 Yrotation Xrotation Zrotation
                  JOINT leftMiddleIntermediate
                  {
                    OFFSET 0.3705733999999994 -2.9611069152224445e-9 9.35054791928458e-8
                    CHANNELS 3 Yrotation Xrotation Zrotation
                    JOINT leftMiddleDistal
                    {
                      OFFSET 0.22861063500000056 -1.82673876025774e-9 -1.6740782024515788e-7
                      CHANNELS 3 Yrotation Xrotation Zrotation
                      End Site
                      {
                        OFFSET 0.22861063500000056 -1.82673876025774e-9 -1.6740782024515788e-7
                      }
                    }
                  }
                }
                JOINT leftRingProximal
                {
                  OFFSET 0.6561845547265777 0.07380246406440083 -0.13588087571513918
                  CHANNELS 3 Yrotation Xrotation Zrotation
                  JOINT leftRingIntermediate
                  {
                    OFFSET 0.3437531000000005 -2.746796123886952e-9 1.4935781944558357e-7
                    CHANNELS 3 Yrotation Xrotation Zrotation
                    JOINT leftRingDistal
                    {
                      OFFSET 0.1983118991198174 -0.002467117924596085 -0.004538141969590015
                      CHANNELS 3 Yrotation Xrotation Zrotation
                      End Site
                      {
                        OFFSET 0.1983118991198174 -0.002467117924596085 -0.004538141969590015
                      }
                    }
                  }
                }
                JOINT leftThumbProximal
                {
                  OFFSET 0.09767004258864787 -0.14930060425447422 -0.07008212897521154
                  CHANNELS 3 Yrotation Xrotation Zrotation
                  JOINT leftThumbIntermediate
                  {
                    OFFSET 0.36682123028154767 -0.015768465060082004 0.28693641268151077
                    CHANNELS 3 Yrotation Xrotation Zrotation
                    JOINT leftThumbDistal
                    {
                      OFFSET 0.21091084272403915 -0.016756648201192714 0.1933767059105508
                      CHANNELS 3 Yrotation Xrotation Zrotation
                      End Site
                      {
                        OFFSET 0.21091084272403915 -0.016756648201192714 0.1933767059105508
                      }
                    }
                  }
                }
              }
            }
          }
        }
        JOINT rightShoulder
        {
          OFFSET -0.37618174442811925 1.0539491987447769 0
          CHANNELS 3 Yrotation Xrotation Zrotation
          JOINT rightUpperArm
          {
            OFFSET -0.870284438 0 0
            CHANNELS 3 Yrotation Xrotation Zrotation
            JOINT rightLowerArm
            {
              OFFSET -2.1985273100003235 0 0
              CHANNELS 3 Yrotation Xrotation Zrotation
              JOINT rightHand
              {
                OFFSET -2.1468523139682802 0 0
                CHANNELS 3 Yrotation Xrotation Zrotation
                JOINT rightIndexProximal
                {
                  OFFSET -0.6585177834681599 0.07380250427007962 0.18382213159631788
                  CHANNELS 3 Yrotation Xrotation Zrotation
                  JOINT rightIndexIntermediate
                  {
                    OFFSET -0.3323021288626682 -0.009606893929485771 -0.012820872253340998
                    CHANNELS 3 Yrotation Xrotation Zrotation
                    JOINT rightIndexDistal
                    {
                      OFFSET -0.2045908926985518 -0.0071133989147997845 -0.006828784783599051
                      CHANNELS 3 Yrotation Xrotation Zrotation
                      End Site
                      {
                        OFFSET -0.2045908926985518 -0.0071133989147997845 -0.006828784783599051
                      }
                    }
                  }
                }
                JOINT rightLittleProximal
                {
                  OFFSET -0.6110054258835662 0.07380246363125398 -0.29175655876064077
                  CHANNELS 3 Yrotation Xrotation Zrotation
                  JOINT rightLittleIntermediate
                  {
                    OFFSET -0.3144281999999998 -2.5124724523095665e-9 1.8658118799974588e-7
                    CHANNELS 3 Yrotation Xrotation Zrotation
                    JOINT rightLittleDistal
                    {
                      OFFSET -0.18116185580251631 0.002815456192251098 0.0034826415518049436
                      CHANNELS 3 Yrotation Xrotation Zrotation
                      End Site
                      {
                        OFFSET -0.18116185580251631 0.002815456192251098 0.0034826415518049436
                      }
                    }
                  }
                }
                JOINT rightMiddleProximal
                {
                  OFFSET -0.6637478005691111 0.07380246480054087 0.02046981859247815
                  CHANNELS 3 Yrotation Xrotation Zrotation
                  JOINT rightMiddleIntermediate
                  {
                    OFFSET -0.3705733999999994 -2.9611069152224445e-9 9.35054791928458e-8
                    CHANNELS 3 Yrotation Xrotation Zrotation
                    JOINT rightMiddleDistal
                    {
                      OFFSET -0.22861063500000056 -1.82673876025774e-9 -1.6740782024515788e-7
                      CHANNELS 3 Yrotation Xrotation Zrotation
                      End Site
                      {
                        OFFSET -0.22861063500000056 -1.82673876025774e-9 -1.6740782024515788e-7
                      }
                    }
                  }
                }
                JOINT rightRingProximal
                {
                  OFFSET -0.6561845547265777 0.07380246406440083 -0.13588087571513918
                  CHANNELS 3 Yrotation Xrotation Zrotation
                  JOINT rightRingIntermediate
                  {
                    OFFSET -0.3437531000000005 -2.746796123886952e-9 1.4935781944558357e-7
                    CHANNELS 3 Yrotation Xrotation Zrotation
                    JOINT rightRingDistal
                    {
                      OFFSET -0.1983118991198174 -0.002467117924596085 -0.004538141969590015
                      CHANNELS 3 Yrotation Xrotation Zrotation
                      End Site
                      {
                        OFFSET -0.1983118991198174 -0.002467117924596085 -0.004538141969590015
                      }
                    }
                  }
                }
                JOINT rightThumbProximal
                {
                  OFFSET -0.09767004258864787 -0.14930060425447422 -0.07008212897521154
                  CHANNELS 3 Yrotation Xrotation Zrotation
                  JOINT rightThumbIntermediate
                  {
                    OFFSET -0.36682123028154767 -0.015768465060082004 0.28693641268151077
                    CHANNELS 3 Yrotation Xrotation Zrotation
                    JOINT rightThumbDistal
                    {
                      OFFSET -0.21091084272403915 -0.016756648201192714 0.1933767059105508
                      CHANNELS 3 Yrotation Xrotation Zrotation
                      End Site
                      {
                        OFFSET -0.21091084272403915 -0.016756648201192714 0.1933767059105508
                      }
                    }
                  }
                }
              }
            }
          }
        }
      }
    }
  }
  JOINT leftUpperLeg
  {
    OFFSET 0.7715603 -0.3993844658041501 0
    CHANNELS 3 Yrotation Xrotation Zrotation
    JOINT leftLowerLeg
    {
      OFFSET 0 -3.529830000249343 0
      CHANNELS 3 Yrotation Xrotation Zrotation
      JOINT leftFoot
      {
        OFFSET 0 -4.154939295409685 0.004208579085223096
        CHANNELS 3 Yrotation Xrotation Zrotation
        JOINT leftToes
        {
          OFFSET 0 -0.6353414391261847 1.10414981190622
          CHANNELS 3 Yrotation Xrotation Zrotation
          End Site
          {
            OFFSET 0 -0.6015820691747853 1.10414981190622
          }
        }
      }
    }
  }
  JOINT rightUpperLeg
  {
    OFFSET -0.7715603 -0.3993844658041501 0
    CHANNELS 3 Yrotation Xrotation Zrotation
    JOINT rightLowerLeg
    {
      OFFSET 0 -3.529830000249343 0
      CHANNELS 3 Yrotation Xrotation Zrotation
      JOINT rightFoot
      {
        OFFSET 0 -4.154939295409685 0.004208579085223096
        CHANNELS 3 Yrotation Xrotation Zrotation
        JOINT rightToes
        {
          OFFSET 0 -0.6353414391261847 1.10414981190622
          CHANNELS 3 Yrotation Xrotation Zrotation
          End Site
          {
            OFFSET 0 -0.6015820691747853 1.10414981190622
          }
        }
      }
    }
  }
}
MOTION
Frames: 4
Frame Time: 0.03333333333333333
0.01246546564454382 8.936498815363102 1.3376262875907732 -5.22967723350064 -3.7374520314419004 -3.4192203478109406 1.540639375676447 3.2925430072195097 2.8178176830830126 0.7161645056768715 2.259566994236008 3.1254798126769066 0 0 0 -0.07754295542147886 5.622644249920744 0.4562994855695568 1.386747480291399 -7.548946143132213 -0.26656897562060383 0 0 0 0 0 0 -17.44873829269106 0.9979756766776852 -12.63060684658622 -20.032283697694336 3.6799443476096774 -71.1079193341795 -1.4539115023291498 -0.0000052362563796189376 -0.000003176548505675617 -1.6249840473402346 -33.21772498853761 -5.300577404673657 -0.9716104981776359 0.019760284609315625 -7.5911674532355455 1.7646779454873547 0.26985710274312263 -17.368310368226183 0.8134381543977911 0.05758541462850379 -8.037991346659195 5.767653841178278 1.025210818715488 -27.034532461107545 1.7221478920552369 0.3314747447948522 -17.39649621124666 1.6516597305338925 0.29928090706375626 -16.497581065947728 2.6583595726957676 -0.0783688612509007 -15.702300876543521 1.7582587124130737 0.268299028698146 -17.39699204804312 1.8563193598298982 0.3007125183293152 -18.403354514353857 3.645246512641937 0.13792992047725583 -21.12596232769692 2.094653644220688 0.3865741909495406 -20.896328780135192 1.8008803271194203 0.2831898673517129 -17.858674119957573 2.8017269756057126 -0.44760136323974015 4.9571146819732235 24.955051703031884 10.509859775097194 21.838343101433182 2.914653609121761 -13.937644253346718 8.241210185225269 15.34729583724596 1.1471176852656835 15.021859534029012 28.181203464722454 11.647690701008147 64.95463079380245 6.689785356740063 0.00000904093461400294 8.825423485674928e-7 -0.5578810414008024 -20.174227822804493 6.985261594282256 1.245780378576163 0.03987054547677557 6.829284932666416 -1.3677818937269801 0.210666427156664 17.407739382781287 -0.6644756160307408 0.04604292046536314 8.058579080125847 -4.833129620910941 0.7191054102718298 26.408605819338067 -1.3085975642945324 0.1674896838032483 17.431283740513557 -1.3890304312045008 0.16453428055990282 16.528098415361576 -2.262013107720498 -0.12089809324196303 15.004200577963914 -1.302956738752368 0.20247120076084263 17.43258979461994 -1.5137745513547352 0.23878912057223584 18.440923145702595 -3.061539242411776 0.025028962205281988 20.462080143684805 -1.6933345044667145 0.3110296927798964 20.93948546722305 -1.4460726890931848 0.23204550581922576 17.891365042933607 -0.911448949328793 -1.4040616815844023 -4.366711956078542 -29.38411415447728 10.807353123753122 -22.098239006032404 -2.833170132684805 -15.6354480418988 -11.847360926348479 14.989659514821701 -10.43132652382878 7.566024768373513 2.0787713894545603 12.1622648033272 4.603378060289084 0.5161582064415992 1.2714550589075013 -7.098647286334777 0.00001216154467959091 -4.9331453428355125 -2.854846306962859e-7 -10.385252009572774 0.5940939894974245 3.3895056977016407 -9.831606604595246 7.30574680513035 -4.539593257148258 -1.6522071281214645 -3.6911464002017866 3.3157817545406085 0.000010050560587639135 -7.273481459827417 -0.000004057547324628084
0.03324120898138393 8.790519020774147 1.293387916662876 -5.305065752585521 -3.5631233421622217 -2.7561392336059543 1.4720011621452764 5.57532691058452 2.546447983307518 0.6116276677315815 0.5471539066137535 2.6585527335745764 0 0 0 0.15646510913480233 5.889498660522379 0.35455894200255395 2.0333925542556566 -6.749397137671754 -0.37718126717443456 0 0 0 0 0 0 -13.427716331625632 0.9069797447920636 -12.679529611204538 -19.66111411541905 2.8396098612775296 -69.64832711934915 -4.606270154305436 -0.000006738547262753696 0.000016869106731079057 -5.220569034868949 -25.113811563106843 -2.0494361215080623 -1.344489116606384 -0.01873086365252675 -7.735311474411253 1.8843022762065296 0.30882951258475533 -18.595409457890078 0.9146937847170592 0.07278887198661312 -9.037013999441319 6.335867939723168 1.3170668539072132 -27.11954669162976 1.8372130953886179 0.37345551021807655 -18.590229354846667 1.738727854111474 0.32912600114618734 -17.394781194478032 2.676656733799651 -0.07742462007600659 -15.876541421649401 1.8746863669037608 0.30607036992106984 -18.590963732894213 1.943378629281408 0.3304591107372219 -19.300607752338287 3.920813713147765 0.24233292608976856 -21.27371919632738 2.208061531699823 0.4312203535952619 -22.084860625869606 1.8883630691816684 0.31216640247799876 -18.757439587443237 2.5641086881717485 -0.17073079610514022 4.215080914172615 24.85322048333432 10.412987998924688 22.400306730079638 3.3956674456564397 -13.96246379074295 8.362500655226391 11.825654509616204 1.1115334912075432 14.662849169777866 28.306348188160257 9.889680953779234 64.36900940164313 7.856583529914532 0.000014016281289326161 -0.000005807132256506426 5.230814955594997 -15.685843950425923 4.277171382074207 1.877278433865223 -0.047643913339873036 7.879044435987454 -1.3589666099280173 0.20793669449281324 17.29454437257167 -0.6961325695324007 0.050634029852260294 8.451172124836857 -6.014610939034042 1.3281823197237967 27.27709394531922 -1.2997018627530366 0.1650337535488718 17.318097350390822 -1.4198621299429728 0.17309335850162774 16.92060383012434 -2.3458742551541114 -0.1204721659693281 15.995286371360342 -1.2941638741707682 0.19981342704290353 17.319852607694916 -1.544082566979533 0.24897027678425415 18.833404139792854 -3.656507462960163 0.24096132652830024 21.410087919162425 -1.6847344812400156 0.30773746692276344 20.826515191374867 -1.476441841337287 0.24210571354779548 18.283832913347037 -0.8450311686234759 -1.2985982271275054 -3.827653384442274 -29.384106580787986 10.807374853511543 -22.098244843277588 -3.4580368037138633 -15.52174542761473 -11.819403883323966 14.126674797681515 -15.980795068578038 6.89537816420464 2.583020335177331 22.616008506554028 5.064796641286752 0.8378969635013966 -3.5119293637228943 -7.156400641405275 0.000003318958478693066 -4.978099363680166 -0.0000032860364141584482 -11.04315108187783 -7.060825795105148 2.897790718034095 -8.29371636845524 21.283706544504014 -6.660244711645284 -3.6051289116984133 -10.008527430810979 4.784304314280419 -0.000003948230524768078 -7.5054282504396355 -0.0000015371479319146617
0.057570582086389724 8.63798054781827 1.2076412381391566 -5.640942545601316 -3.0699253929564576 -1.9058300214982662 1.2923509911487687 8.66056257077381 2.021403966959692 0.5070730367688961 -1.1401206836964761 2.108076671833777 0 0 0 0.42328632880465983 6.130337636772667 0.2930598476273016 2.8742489577962784 -6.123277154310421 -0.6048258526197129 0 0 0 0 0 0 -9.010042121416944 0.829387512952555 -12.570619528985693 -18.705792445069637 0.9271829374541763 -67.72212582043994 -6.642932653351278 -0.000004834900708587683 0.000012951105486061435 -9.17957205126966 -12.053201484517494 0.7623800828350229 -2.3199960124792116 -0.1125618033715505 -8.20901480069414 2.19879089058086 0.42515438924909593 -21.86595554092127 1.1831438375608105 0.1218915811712196 -11.699778892760863 7.841049868185362 2.109449825404978 -27.42845200796953 2.139401774371664 0.4969626310191517 -21.771742664084897 1.9684377824436405 0.4153001622551366 -19.786136568531333 2.7350832817152804 -0.07405429897150095 -16.432371372313856 2.1809423078326784 0.41857633856163506 -21.773185440939383 2.1730448556569 0.41636521956801104 -21.69203901771767 4.6560536769131025 0.5296385538684187 -21.7563128815622 2.505708241856228 0.5617306930788599 -25.254083964620488 2.1191641151346485 0.39598387641340577 -21.152432447760955 1.9153652668594898 0.5629173355143694 2.2366234539476544 24.573394623301862 10.160003915566431 23.89694814328466 4.673377975781741 -14.02863620163772 8.691547366496032 8.063350891044507 1.0248878271453 14.10437230412925 28.953382840817046 4.7946884155685 63.661209983926504 4.334404227808431 -2.5570730916999685e-7 0.000009544930703048262 12.393588082516903 -7.9871455893125995 1.2738071692290143 3.4484355628534353 -0.3796303213384592 10.653110629835794 -1.3498506961367611 0.2051635396284664 17.177276814374075 -0.7800300407265144 0.06386218191116369 9.493651036042877 -8.923541716486614 3.0473993554579413 29.538945213148207 -1.290475148017111 0.16249067163406936 17.200828321213336 -1.5014380122504898 0.19682873655744235 17.962909576583588 -2.570236117376387 -0.11162001586628806 18.62704092845029 -1.2851033737877744 0.19704462250329444 17.203793313395146 -1.6242589274860375 0.2770895016880475 19.875691087153346 -5.139099873687122 0.8778680814455826 23.920775038137414 -1.675843774591086 0.3043331560284561 20.70985666524231 -1.5567210538444993 0.2698451764602266 19.326073532869042 -0.6661767909109835 -1.0118439474965661 -2.399295091519888 -29.38411718395268 10.80735573132405 -22.098254507354124 -5.115470426970369 -15.218394283409278 -11.751493679666677 12.886941311395335 -20.604010223952788 5.944833855025943 4.593170171015288 30.06061692959287 6.375130303864851 0.8621575258645373 -6.420922414603154 -7.945601364742464 0.000002366431971069377 -4.858031221131302 -0.000002411038151950332 -10.863480461637945 -13.076068817721723 2.4527218507155424 -6.8595464210384645 30.622083158299816 -7.580639362305831 -5.631599963287917 -13.67225084050241 5.69836108555604 -0.0000040441168961913645 -7.634878708018036 -7.064672615538617e-7
0.085039653561332 8.46135919744318 1.0722052601037988 -6.153235118757551 -1.6536601045326034 -0.7522546431117942 0.9755732821440233 12.04993640905886 1.0401516507223014 0.42587221668332126 -2.3159565204399475 1.5890413354911257 0 0 0 0.7114552633584598 6.273263845325039 0.21936608282207265 3.813959779000038 -5.946254781339909 -0.9861061389012302 0 0 0 0 0 0 -4.956259494307418 0.7645358468421188 -12.095895517698468 -16.708345997340235 0.11522556907071912 -65.11380385629688 -12.709830020715122 -0.0000170949849410031 0.000021162170383242632 -11.402326185450718 5.0425558385599585 2.0527667590795424 -3.68687404388187 -0.24327862229681785 -9.073891811276352 2.639079626184426 0.6238639836403769 -26.576752337906598 1.5652253080329466 0.21437915409953867 -15.535666233739486 9.979659920973011 3.3011645951769797 -28.034146833116452 2.5616711687477416 0.7039302278298769 -26.35433628940441 2.2926046473690875 0.5561370889612212 -23.23079110905326 2.839177475346036 -0.06653256749221845 -17.42076540550639 2.610145742927343 0.610136481783017 -26.356921504089637 2.4971739747142827 0.5567873749833756 -25.136877908302722 5.712318115236786 0.972932605673145 -22.63203888845159 2.921110676494713 0.7783798141328276 -29.82204055045083 2.445010212839446 0.5335140526043561 -24.601525589023588 0.9389672264845176 1.6124955494672994 -0.6129457383078166 24.14925877120267 9.809914438501107 26.05007537435862 6.502921839969773 -14.124533654877975 9.180168160200822 4.662020301521201 0.8872826931566433 13.279994595191232 26.848888581186856 3.860413352516669 62.0270774920003 12.78234044609339 -0.000002923090968220667 -0.000012050144418111442 12.79675160976521 2.921113750818811 -1.4173022220060871 5.459314212533097 -1.083545818208973 14.589925144871923 -1.3662146767340324 0.21019572789872448 17.387550662738448 -0.899793080653988 0.08549567068308835 10.98753355623839 -12.57932766084232 5.747770682661637 32.66626645527677 -1.3070020530137663 0.16703907616088456 17.411101173189795 -1.6175555339571466 0.23340645891863662 19.456512905225047 -2.894982301543953 -0.07901891711416902 22.39781315830264 -1.301654470256331 0.20207914279123648 17.41581659051571 -1.738195930770982 0.3198586198295341 21.369256247765136 -7.041307555739903 1.9398700418935906 27.497784980299933 -1.6919209001041582 0.3104869515622184 20.920926405023994 -1.6708729141293137 0.31213046341022627 20.819585409154982 -0.4031334171794854 -0.5843209127665648 -0.3607284488436761 -29.384105066049997 10.807374853511543 -22.09826034460082 -7.485884000829614 -14.780661053007714 -11.67023101815247 11.132985634605133 -26.094301595161273 4.519647253729492 7.8399129290964416 36.54586057909629 8.723549480700084 1.1690171943701195 -8.414966905902148 -8.998413423912512 0.000005568055149693252 -5.157525975947067 2.6957882735896012e-8 -9.930766265486817 -20.093850925260234 2.0345320106427667 -5.783026812342425 39.04359656241475 -8.26886894474543 -7.805325215876442 -16.401717294153272 6.439403531666598 0.0000057450295057089435 -8.006708809133814 -0.000004335155567450713
